<svg xmlns="http://www.w3.org/2000/svg" viewBox="0 0 256 256" role="img" aria-labelledby="title desc">
  <title id="title">Hues Of Life Anu logo</title>
  <desc id="desc">A blue and gold monogram logo with the Sinhala word Anu.</desc>
  <defs>
    <linearGradient id="markGradient" x1="42" y1="30" x2="216" y2="226" gradientUnits="userSpaceOnUse">
      <stop offset="0" stop-color="#3f7cff"/>
      <stop offset="0.52" stop-color="#1d4ed8"/>
      <stop offset="1" stop-color="#102b7a"/>
    </linearGradient>
    <linearGradient id="goldGradient" x1="76" y1="74" x2="186" y2="184" gradientUnits="userSpaceOnUse">
      <stop offset="0" stop-color="#fff2b8"/>
      <stop offset="0.55" stop-color="#f0c86a"/>
      <stop offset="1" stop-color="#c4912f"/>
    </linearGradient>
    <filter id="softShadow" x="-20%" y="-20%" width="140%" height="145%">
      <feDropShadow dx="0" dy="14" stdDeviation="12" flood-color="#15398f" flood-opacity="0.25"/>
    </filter>
  </defs>
  <rect width="256" height="256" rx="58" fill="#f8fbff"/>
  <path d="M49 84c0-22.1 17.9-40 40-40h78c22.1 0 40 17.9 40 40v88c0 22.1-17.9 40-40 40H89c-22.1 0-40-17.9-40-40V84Z" fill="url(#markGradient)" filter="url(#softShadow)"/>
  <path d="M78 79c18 5 34 5 50-1 17-7 33-4 50 8-9 11-19 17-31 19-14 2-27-2-40-1-12 1-22 6-29 15V79Z" fill="#ffffff" opacity="0.2"/>
  <path d="M78 180c12-12 26-18 42-18 18 0 32 9 49 5 8-2 15-6 22-12-1 29-19 45-48 45H94c-7 0-13-2-16-5v-15Z" fill="#071a54" opacity="0.2"/>
  <text x="128" y="146" text-anchor="middle" dominant-baseline="middle" fill="url(#goldGradient)" font-family="'Noto Sans Sinhala', 'Iskoola Pota', sans-serif" font-size="64" font-weight="700">අනූ</text>
  <path d="M80 58c-3 14-10 22-24 25 14 3 21 11 24 25 3-14 10-22 24-25-14-3-21-11-24-25Z" fill="#f7d989"/>
  <circle cx="184" cy="72" r="6" fill="#f7d989"/>
</svg>
